<?xml version="1.0" standalone="no"?>
<!DOCTYPE svg PUBLIC "-//W3C//DTD SVG 20010904//EN"
 "http://www.w3.org/TR/2001/REC-SVG-20010904/DTD/svg10.dtd">
<svg version="1.0" xmlns="http://www.w3.org/2000/svg"
 width="1070.000000pt" height="1092.000000pt" viewBox="0 0 1070.000000 1092.000000"
 preserveAspectRatio="xMidYMid meet">
<metadata>
Created by potrace 1.13, written by Peter Selinger 2001-2015
</metadata>
<g transform="translate(0.000000,1092.000000) scale(0.100000,-0.100000)"
fill="#000000" stroke="none">
<path d="M5288 10446 c-20 -7 -58 -27 -84 -45 -26 -17 -56 -31 -65 -31 -10 0
-49 12 -86 26 -52 21 -87 27 -148 28 -103 1 -148 -15 -208 -77 l-48 -50 -72
22 c-116 34 -214 44 -309 31 -101 -14 -252 -61 -333 -104 -72 -37 -200 -159
-173 -164 29 -6 130 28 178 58 133 85 287 127 430 117 93 -6 153 -23 147 -41
-5 -16 -95 -23 -200 -14 -50 5 -114 5 -142 2 -89 -10 -205 -78 -205 -119 0
-34 245 -8 312 33 39 24 82 30 76 10 -3 -7 -26 -29 -53 -48 -169 -123 -251
-188 -334 -266 -102 -96 -291 -315 -291 -338 0 -14 61 -59 98 -70 38 -13 58 2
138 102 43 53 105 124 139 157 101 99 206 188 199 171 -8 -22 24 -48 121 -98
166 -85 284 -179 326 -260 l19 -38 -28 0 c-31 0 -55 22 -91 82 -26 44 -62 67
-153 99 -63 22 -69 23 -84 7 -38 -38 22 -151 105 -197 33 -18 74 -28 163 -38
89 -10 133 -20 170 -39 113 -57 200 -190 202 -308 1 -58 0 -61 -24 -64 -27 -3
-63 40 -121 145 -46 83 -93 109 -285 155 -90 22 -171 37 -180 34 -19 -7 -12
-50 18 -111 68 -135 208 -215 376 -215 98 0 140 -30 188 -135 45 -97 45 -278
1 -339 -21 -29 -51 -15 -162 74 -123 100 -501 488 -521 535 -18 43 -17 111 1
195 19 87 19 153 -2 283 -14 88 -20 107 -34 107 -28 0 -72 -44 -104 -102 -26
-45 -30 -64 -30 -128 0 -66 4 -85 33 -140 17 -36 36 -86 41 -112 8 -45 7 -48
-13 -48 -19 0 -126 49 -428 194 -187 89 -226 151 -177 281 19 51 43 90 132
219 33 48 33 52 2 60 -36 9 -100 -21 -130 -60 -40 -52 -98 -78 -162 -71 -77 8
-80 14 -36 59 106 110 251 129 469 63 128 -39 175 -32 238 34 21 22 27 34 19
42 -6 6 -93 24 -194 41 -238 39 -371 37 -464 -6 -73 -33 -125 -82 -154 -144
l-22 -47 -69 3 c-151 8 -277 -64 -343 -194 -19 -38 -24 -39 -152 -69 -121 -28
-197 -60 -280 -120 -100 -71 -179 -184 -302 -429 -30 -61 -57 -113 -59 -115
-2 -3 -10 4 -18 14 -13 18 -16 17 -80 -10 -142 -60 -235 -223 -271 -475 -13
-92 -12 -96 8 -118 24 -26 35 -16 -121 -122 -148 -101 -161 -81 -53 83 38 58
86 123 106 145 22 25 38 55 42 78 6 37 6 37 -23 30 -71 -18 -191 -128 -254
-235 -61 -104 -103 -234 -116 -361 -5 -54 -3 -68 10 -79 23 -19 44 -8 162 87
109 87 183 136 192 128 8 -8 -29 -86 -56 -118 -32 -38 -128 -90 -237 -128
-112 -39 -160 -67 -221 -127 -85 -86 -139 -244 -118 -349 7 -39 14 -49 33 -54
21 -5 18 -9 -38 -52 -72 -56 -112 -110 -142 -187 -26 -67 -29 -175 -7 -236
l15 -40 -50 -60 c-28 -33 -62 -85 -76 -115 -22 -48 -26 -69 -26 -160 0 -99 2
-108 32 -167 18 -34 33 -68 33 -74 0 -7 -25 -54 -56 -106 -101 -170 -146 -327
-146 -518 -1 -199 46 -362 147 -517 30 -46 55 -90 55 -99 0 -9 -14 -47 -31
-83 -40 -86 -50 -194 -25 -280 18 -61 51 -121 80 -145 39 -33 49 -69 36 -138
-25 -132 6 -239 98 -343 67 -76 72 -87 70 -177 -1 -97 19 -164 71 -233 47 -62
98 -103 165 -130 l53 -23 6 -116 c15 -286 153 -551 375 -718 132 -99 286 -163
317 -131 4 4 -3 24 -15 46 -17 29 -37 46 -88 71 -176 87 -315 228 -410 416
-67 135 -89 278 -70 467 18 178 17 222 -6 247 l-19 21 29 -10 c16 -6 61 -26
99 -45 74 -38 94 -42 113 -23 6 6 14 9 17 6 9 -9 -31 -155 -50 -184 -27 -41
-39 -42 -115 -10 -11 4 -21 -5 -34 -29 -19 -35 -19 -36 0 -50 10 -8 36 -19 56
-25 48 -13 58 -33 58 -112 0 -87 24 -191 61 -266 43 -88 111 -153 212 -200
162 -77 187 -116 198 -307 8 -156 30 -223 92 -287 58 -60 107 -82 163 -73 24
3 44 9 44 12 0 8 -64 87 -117 145 -55 61 -81 112 -65 131 7 8 41 17 78 21 72
7 118 26 133 54 17 32 41 183 41 259 0 205 -98 473 -249 680 -31 42 -51 80
-51 96 0 33 2 33 208 12 175 -19 222 -30 222 -52 0 -9 -26 -42 -58 -72 -42
-40 -63 -70 -75 -105 -27 -80 -19 -192 17 -241 29 -40 111 -17 187 52 48 44
72 87 98 182 11 39 22 75 26 81 12 19 54 10 133 -31 92 -48 158 -59 214 -36
29 12 35 20 31 36 -10 38 6 72 40 86 38 15 237 35 392 38 l110 2 -3 -25 c-5
-44 -55 -114 -102 -140 -44 -24 -49 -25 -228 -22 -311 4 -417 -21 -512 -124
-55 -61 -80 -125 -81 -205 -1 -97 30 -139 108 -146 126 -12 284 97 329 227 13
37 12 45 -2 76 -9 19 -22 34 -29 34 -21 0 -75 -50 -75 -68 0 -15 -51 -60 -152
-136 -30 -23 -40 -25 -57 -16 -12 6 -21 14 -21 19 0 17 122 192 143 203 15 9
70 13 177 13 142 0 159 -2 208 -24 90 -41 111 -94 77 -192 -35 -99 -97 -141
-270 -185 -94 -24 -130 -28 -250 -28 -77 -1 -199 5 -272 13 -73 7 -148 10
-168 7 l-35 -7 15 -29 c22 -43 47 -55 170 -84 206 -48 329 -54 655 -30 83 6
87 5 117 -20 20 -17 58 -77 99 -159 72 -143 228 -407 277 -472 17 -22 64 -77
104 -122 66 -73 71 -82 51 -85 -13 -2 -28 -14 -35 -28 -11 -23 -87 -285 -113
-388 -6 -24 -18 -46 -26 -49 -11 -4 -43 22 -99 77 l-84 83 62 31 c74 37 120
97 137 182 10 49 9 68 -10 150 -12 52 -26 96 -31 100 -11 6 -126 -30 -179 -56
-86 -44 -130 -126 -130 -245 0 -44 5 -98 10 -120 5 -22 8 -41 6 -42 -7 -8
-279 47 -317 64 -88 39 -150 120 -161 207 -3 28 0 30 49 41 179 41 366 233
418 431 24 93 20 145 -13 177 -15 15 -37 27 -48 27 -10 0 -71 -14 -134 -31
-202 -54 -299 -122 -361 -254 -41 -86 -59 -168 -59 -260 0 -182 77 -331 212
-412 137 -83 406 -99 416 -25 3 19 11 13 52 -45 26 -38 72 -91 102 -119 90
-82 261 -161 292 -135 9 7 15 55 19 143 7 133 30 256 63 333 10 22 20 57 23
79 l6 38 140 -127 c161 -147 258 -222 374 -289 44 -25 81 -50 81 -54 -1 -4
-23 -24 -51 -45 -43 -34 -52 -37 -67 -26 -77 60 -296 246 -332 283 l-44 46
-39 -97 c-38 -95 -39 -101 -35 -198 3 -78 8 -108 24 -135 35 -60 116 -72 251
-39 49 13 51 19 22 60 -11 16 -17 29 -12 29 5 0 53 -30 108 -66 200 -131 427
-228 645 -275 151 -33 437 -33 589 0 201 43 430 129 551 208 l58 38 -41 28
-42 29 35 -7 c113 -21 159 -26 285 -31 136 -6 141 -6 169 17 l29 23 -7 108
c-10 149 -32 289 -47 299 -7 4 -18 5 -25 1 -20 -12 -251 -257 -262 -279 -16
-29 -7 -33 63 -33 60 0 61 0 115 55 60 61 68 59 69 -21 1 -42 -21 -73 -62 -87
-25 -9 -170 18 -257 48 -59 21 -87 25 -134 22 -32 -3 -54 -2 -50 2 5 5 108 88
229 186 121 98 240 195 264 214 26 22 53 56 66 85 l22 50 38 -68 c75 -134 102
-236 110 -411 5 -120 13 -145 45 -145 20 0 199 107 282 168 68 50 78 73 48
114 -20 27 -20 29 -4 24 198 -60 343 -57 476 10 104 53 208 181 208 256 0 30
-3 30 -75 11 -11 -3 -49 -36 -85 -73 -44 -45 -88 -78 -134 -100 -154 -76 -372
-40 -476 77 -42 48 -66 123 -55 171 5 25 10 28 34 24 26 -4 34 -15 76 -105 30
-64 61 -114 83 -136 l36 -34 18 39 c20 45 16 90 -14 171 -36 98 -130 167 -255
188 l-42 7 -20 -67 c-50 -163 -10 -276 141 -396 l48 -37 -63 -49 c-102 -81
-116 -88 -131 -72 -13 14 -176 492 -176 516 0 7 14 20 31 28 60 32 214 212
306 360 61 98 100 178 140 289 50 138 63 145 235 123 122 -16 126 -16 378 13
140 16 295 35 343 41 48 6 90 9 94 5 3 -3 7 -33 9 -66 5 -131 65 -180 220
-180 360 0 722 297 834 685 28 96 37 223 19 258 l-15 27 -32 -27 c-30 -26 -34
-36 -47 -125 -27 -184 -106 -336 -252 -484 -94 -95 -185 -157 -272 -184 -112
-35 -104 -48 -99 162 4 150 9 195 27 249 39 123 130 232 247 299 57 33 87 83
57 94 -61 24 -153 -22 -259 -128 -128 -128 -164 -237 -164 -502 0 -178 4 -194
45 -194 16 0 17 -2 5 -10 -8 -5 -44 -10 -78 -10 -59 0 -67 3 -97 33 -38 38
-55 98 -35 122 8 10 31 15 64 15 70 0 93 23 62 65 -9 13 -31 21 -66 25 -71 7
-78 20 -57 105 59 239 218 468 426 613 80 56 99 61 124 34 13 -14 44 -125 72
-257 2 -11 0 -51 -6 -89 -20 -146 -110 -265 -260 -346 -84 -45 -102 -67 -79
-95 53 -64 310 88 379 222 28 56 51 146 51 203 0 74 18 121 65 166 35 34 57
45 126 64 117 31 205 76 264 135 66 66 86 110 97 220 13 133 27 170 109 280
47 63 59 111 59 250 l0 110 60 120 c93 184 96 251 20 371 -44 70 -44 70 25
159 51 67 110 192 136 290 18 65 22 109 23 240 2 278 -51 450 -176 573 l-44
42 38 78 c53 109 67 198 45 287 -16 62 -59 145 -94 181 -11 11 -19 11 -35 3
-19 -10 -20 -9 -13 17 4 16 14 61 22 99 28 134 -6 248 -105 348 l-57 58 -5
142 c-5 126 -9 148 -32 199 -41 89 -114 160 -185 182 -22 7 -23 5 -23 -47 0
-51 3 -57 52 -113 66 -76 88 -124 88 -197 0 -61 -17 -144 -31 -153 -4 -2 -17
13 -28 35 -18 34 -100 99 -144 114 -5 1 -2 17 7 34 27 53 40 252 27 396 -13
134 -47 299 -80 388 -55 146 -157 251 -319 331 l-103 50 20 22 20 21 -31 73
c-47 113 -106 167 -238 219 -70 28 -104 46 -101 55 19 64 -49 202 -154 315
-123 132 -278 226 -422 255 -71 14 -103 5 -103 -30 -1 -21 -12 -5 -49 67 -85
163 -162 218 -320 230 -81 7 -85 8 -110 41 -97 132 -237 198 -363 170 l-50
-10 -78 73 c-94 90 -184 145 -310 189 l-95 33 -240 0 -240 1 -80 39 c-74 37
-86 40 -165 40 -77 0 -91 -3 -152 -34 l-66 -34 -54 35 c-96 64 -189 83 -270
54z m197 -126 c22 -11 48 -33 58 -49 l17 -30 -31 16 c-28 14 -35 14 -86 -6
-30 -12 -63 -21 -72 -21 -22 0 -103 69 -98 84 6 18 79 36 127 30 25 -3 63 -14
85 -24z m-511 -14 l70 -32 -55 -34 c-39 -26 -65 -35 -94 -35 -45 1 -137 33
-133 47 3 8 127 86 138 86 3 1 36 -14 74 -32z m991 -28 l50 -31 -55 -25 c-30
-13 -64 -28 -75 -32 -23 -8 -191 68 -188 85 3 16 81 33 153 34 56 1 72 -4 115
-31z m551 -29 c52 -13 48 -21 -19 -39 -42 -11 -55 -11 -108 5 -33 10 -56 22
-52 26 20 19 118 23 179 8z m-1343 -40 c20 -17 37 -37 37 -44 0 -7 -37 -42
-82 -78 -46 -35 -135 -119 -198 -186 -98 -102 -121 -121 -146 -121 -16 0 -87
25 -157 55 -149 65 -226 87 -270 78 -27 -5 -14 10 88 97 66 56 135 114 153
128 l33 25 67 -28 c164 -69 410 -26 420 73 2 18 6 32 10 32 4 0 24 -14 45 -31z
m482 -44 c139 -88 259 -95 399 -25 32 17 69 30 82 30 14 0 63 -32 125 -82 56
-46 109 -88 118 -95 13 -10 29 -9 76 3 33 9 63 19 68 23 4 4 -14 32 -41 62
-84 96 -83 93 -21 69 30 -12 98 -39 151 -61 106 -43 125 -46 153 -25 18 13 16
17 -31 72 -28 33 -41 55 -31 51 10 -4 22 -7 27 -7 12 0 101 -79 141 -124 28
-33 30 -37 10 -27 -13 7 -40 11 -60 9 -39 -5 -521 -145 -718 -208 -67 -22
-139 -40 -161 -40 -47 0 -67 15 -197 146 -55 55 -131 127 -168 160 l-69 60 27
32 c30 36 26 36 120 -23z m-245 -95 c26 -14 166 -221 207 -305 41 -87 49 -126
33 -178 -14 -48 -30 -70 -83 -117 l-39 -34 7 101 c8 114 -8 192 -50 240 -19
23 -27 26 -42 17 -49 -29 -67 -194 -26 -251 45 -63 53 -80 53 -111 0 -41 -55
-102 -91 -102 -36 0 -85 34 -116 81 -21 33 -28 56 -31 109 -5 78 8 111 70 178
51 56 78 115 78 173 0 62 -10 109 -23 109 -20 0 -117 -113 -144 -167 -19 -40
-26 -71 -28 -125 -1 -45 -8 -86 -19 -106 l-17 -33 -18 23 c-32 41 -51 86 -51
121 0 100 65 207 192 317 80 70 102 79 138 60z m1617 -175 c56 -74 72 -107
112 -218 47 -134 40 -177 -28 -177 -38 0 -46 7 -211 179 -94 99 -172 183 -172
187 1 4 38 21 84 37 46 16 94 39 107 52 31 30 47 21 108 -60z m242 36 c47 -25
75 -56 100 -111 29 -64 27 -76 -10 -46 -20 17 -42 26 -65 26 -59 0 -113 40
-174 129 l-24 34 68 -7 c38 -4 85 -15 105 -25z m472 -271 c9 -14 20 -35 24
-47 5 -19 1 -23 -29 -28 -72 -14 -209 79 -236 160 -6 19 -8 39 -5 45 9 15 223
-99 246 -130z m-1153 117 c27 -15 290 -413 338 -512 27 -54 34 -82 34 -126 0
-108 -54 -234 -129 -302 -41 -37 -65 -45 -76 -27 -9 15 14 178 42 285 30 116
27 182 -10 254 -28 56 -99 112 -171 134 -71 23 -100 22 -91 0 3 -10 24 -75 45
-145 38 -125 61 -180 120 -287 33 -58 37 -98 19 -183 -28 -130 -133 -268 -204
-268 -23 0 -19 21 31 174 40 122 46 149 41 202 -6 80 -35 144 -92 199 -52 50
-53 51 -80 31 -17 -12 -19 -28 -20 -157 0 -143 0 -144 34 -214 22 -47 35 -90
38 -130 4 -53 1 -66 -27 -113 -35 -60 -53 -73 -341 -261 -107 -70 -247 -164
-311 -209 -64 -45 -125 -82 -137 -82 -39 0 -56 45 -56 145 0 103 19 153 83
225 43 47 129 80 139 54 3 -8 11 -14 18 -14 7 0 75 27 152 59 103 44 139 64
141 79 7 43 -124 88 -209 72 -73 -14 -100 -31 -193 -125 -69 -70 -89 -85 -115
-85 -30 0 -31 1 -31 48 0 57 26 116 70 160 46 47 80 61 165 72 44 6 98 20 129
36 106 52 200 177 213 283 8 68 -9 71 -132 21 -168 -68 -193 -88 -287 -230
-21 -30 -53 -71 -73 -90 l-35 -34 0 46 c0 39 11 63 71 164 101 168 177 273
213 295 38 23 90 24 163 3 35 -10 71 -14 97 -10 98 15 200 94 227 174 21 62
-20 71 -166 36 -74 -18 -128 -46 -179 -92 -63 -57 -54 -20 18 72 80 103 143
159 194 174 51 16 63 15 140 -4 54 -14 74 -14 126 -4 60 12 126 43 126 60 0 5
-21 22 -47 37 -43 25 -56 28 -127 25 l-79 -3 29 24 c50 42 106 77 123 77 9 -1
26 -6 39 -13z m-3345 -48 c35 -9 43 -29 13 -29 -8 0 -44 -21 -81 -46 -37 -25
-86 -52 -110 -61 -47 -16 -130 -14 -130 2 0 6 30 38 67 72 89 81 126 90 241
62z m4186 -54 c45 -79 95 -131 157 -161 49 -24 63 -26 130 -22 70 5 78 3 103
-19 l26 -24 -85 6 c-114 8 -286 32 -332 45 -49 14 -98 61 -98 94 0 32 50 136
65 136 2 0 17 -25 34 -55z m-4047 8 c40 -36 9 -123 -60 -170 -40 -26 -94 -38
-237 -53 -118 -12 -151 -25 -161 -66 -11 -45 4 -49 189 -50 141 -1 186 -6 251
-23 154 -41 349 -150 541 -302 83 -65 95 -77 95 -95 0 -25 -54 2 -115 57 -71
64 -115 82 -188 77 l-48 -3 33 -55 c48 -80 116 -114 261 -130 117 -13 217 -79
298 -196 30 -44 33 -84 5 -84 -7 0 -135 61 -286 135 -253 124 -275 134 -291
119 -22 -20 -16 -67 16 -139 30 -70 74 -116 142 -153 75 -40 154 -54 230 -42
111 19 258 5 296 -28 39 -34 3 -45 -79 -25 -45 12 -69 13 -109 5 -79 -16 -245
-83 -245 -98 0 -21 77 -72 134 -89 79 -24 135 -8 232 66 73 56 107 54 165 -8
79 -85 336 -407 343 -431 6 -18 4 -22 -13 -22 -18 0 -47 19 -187 119 -98 71
-192 81 -292 30 -68 -34 -155 -107 -177 -148 l-14 -27 102 -12 c207 -23 270
-25 336 -8 83 21 158 20 201 -2 45 -24 106 -115 147 -217 17 -44 40 -103 51
-131 13 -32 17 -56 12 -64 -8 -12 -10 -12 -14 0 -52 147 -73 178 -145 214 -42
22 -131 46 -167 46 -30 0 -25 -30 17 -101 66 -111 129 -174 200 -200 91 -33
139 -101 139 -197 0 -44 -24 -98 -48 -111 -67 -36 -199 9 -259 87 -39 52 -53
98 -53 178 0 140 -64 235 -204 305 -46 22 -92 39 -104 37 -20 -3 -20 -4 9 -95
31 -97 55 -133 177 -272 54 -62 76 -101 56 -101 -7 0 -302 181 -379 233 -128
87 -184 160 -185 237 0 19 9 71 20 115 22 87 20 181 -5 265 -7 25 -21 71 -30
103 l-16 58 -40 -48 c-61 -72 -112 -183 -113 -246 0 -64 14 -100 76 -196 26
-41 48 -77 48 -81 0 -14 -60 3 -121 34 -114 58 -144 124 -128 283 10 94 5 137
-35 288 -15 59 -29 91 -39 93 -36 7 -97 -123 -97 -207 0 -70 25 -142 70 -202
30 -40 40 -63 40 -91 0 -49 -13 -48 -61 2 -116 121 -180 335 -149 492 16 84
40 128 110 203 67 72 83 113 78 200 -3 57 -4 60 -30 63 -24 3 -32 -6 -87 -100
-48 -81 -61 -112 -61 -145 0 -30 -7 -50 -25 -70 l-24 -28 -1 32 c0 28 101 289
214 551 20 46 36 92 36 102 0 22 -52 68 -86 76 -44 11 -72 -4 -100 -54 -101
-176 -216 -361 -229 -366 -20 -7 -30 36 -14 65 18 35 14 119 -8 170 -11 25
-45 82 -74 126 -47 70 -57 79 -75 73 -29 -11 -56 -82 -57 -150 -1 -84 25 -148
95 -227 94 -105 105 -152 58 -229 -57 -91 -246 -102 -319 -18 -39 44 -40 76
-6 284 27 165 93 524 101 552 6 21 55 38 113 38 63 0 118 17 167 51 55 37 104
105 104 142 0 28 2 29 32 23 17 -3 40 -14 50 -23z m4670 -204 c130 -42 211
-90 293 -173 51 -52 82 -95 114 -159 40 -79 87 -137 112 -137 5 0 9 -4 9 -10
0 -5 -9 -10 -19 -10 -11 0 -31 -4 -44 -9 -20 -8 -24 -15 -19 -36 6 -35 39 -55
117 -71 109 -23 178 -71 234 -166 12 -21 37 -49 54 -64 31 -25 31 -26 7 -20
-70 15 -141 18 -169 7 -27 -12 -28 -14 -17 -43 16 -43 36 -54 172 -89 65 -17
126 -37 134 -43 8 -7 30 -19 48 -26 77 -30 173 -164 189 -264 7 -45 -6 -46
-56 -7 -34 27 -93 61 -106 61 -11 0 -4 -102 9 -128 8 -15 32 -41 54 -59 36
-29 129 -170 118 -180 -8 -8 -49 19 -99 66 -86 80 -120 177 -132 376 -9 143
-8 141 -62 159 -73 25 -78 15 -63 -120 7 -60 14 -186 14 -280 l1 -172 -30 -38
c-42 -53 -118 -88 -260 -119 -153 -34 -220 -41 -230 -25 -12 20 27 63 89 96
71 38 111 74 135 123 23 46 41 128 41 191 0 73 -24 76 -100 10 -115 -100 -151
-156 -168 -262 -11 -71 -31 -102 -83 -129 -51 -26 -157 -49 -226 -49 -46 0
-53 3 -53 19 0 31 43 74 104 105 65 33 134 104 169 172 37 74 79 196 72 212
-8 21 -88 10 -151 -20 -99 -46 -163 -135 -185 -255 -25 -135 -112 -219 -238
-230 -45 -4 -68 -1 -109 17 -45 19 -54 28 -63 61 -11 35 -10 42 15 79 46 69
222 284 265 323 46 42 42 41 171 41 91 1 99 3 188 45 110 53 118 71 45 103
-102 46 -229 21 -331 -65 -24 -21 -48 -37 -53 -37 -18 0 -8 47 33 163 39 113
42 118 54 94 16 -30 -3 -22 279 -117 127 -43 295 -100 375 -128 80 -27 159
-53 175 -56 l31 -7 -7 71 c-3 39 -8 72 -10 74 -2 2 -34 18 -71 35 -114 54
-148 122 -148 297 0 56 -3 109 -6 118 -8 20 -71 59 -83 52 -13 -9 -31 -89 -24
-114 3 -12 2 -47 -2 -78 -9 -74 -40 -109 -89 -100 -37 7 -201 70 -285 109 -57
27 -76 26 -104 -7 -17 -21 -18 -20 -11 19 19 123 47 164 141 207 34 15 69 28
76 28 8 0 21 8 31 18 15 18 14 21 -13 59 -20 28 -49 49 -94 71 -36 17 -87 50
-112 73 -45 42 -105 130 -105 156 0 20 94 -21 172 -73 105 -71 166 -162 220
-329 41 -125 103 -235 135 -235 42 0 -29 287 -111 445 -81 158 -202 245 -430
310 -95 27 -97 29 -72 42 17 9 26 22 26 38 0 32 8 32 122 -6z m-5256 -30 c-4
-23 -15 -57 -25 -77 l-18 -35 -7 26 c-9 38 -47 35 -132 -8 -122 -62 -230 -164
-285 -272 -19 -37 -19 -38 0 -54 18 -15 16 -16 -40 -31 -56 -15 -59 -15 -59 3
0 66 89 223 177 312 101 102 249 176 352 177 l44 0 -7 -41z m5007 -126 c75 -9
137 -21 137 -25 0 -4 -7 -8 -15 -8 -27 0 -35 -39 -35 -179 0 -137 -16 -381
-26 -411 -4 -10 -11 -4 -24 21 -10 19 -25 41 -33 47 -7 6 -74 19 -148 27 -74
9 -140 18 -148 21 -22 7 15 42 81 75 84 42 126 108 143 223 8 53 -2 156 -15
156 -22 0 -144 -109 -174 -155 -33 -50 -66 -130 -66 -163 0 -32 -45 -95 -80
-113 -65 -35 -174 -18 -200 30 -5 11 -10 35 -10 54 0 47 34 177 60 227 42 83
126 155 210 181 44 13 202 10 343 -8z m-5070 -45 c-22 -116 -145 -219 -292
-246 -28 -5 -51 -6 -51 -2 0 15 145 156 195 190 42 29 144 89 152 90 1 0 0
-15 -4 -32z m-493 -368 c18 -18 28 -20 80 -14 35 4 100 1 156 -7 l97 -13 -5
-127 c-4 -108 -8 -134 -29 -175 -39 -79 -136 -119 -227 -95 -30 9 -53 25 -87
65 l-46 54 75 98 c74 98 79 109 77 150 -1 20 -4 21 -42 11 -30 -7 -49 -21 -70
-50 -16 -22 -29 -35 -29 -29 0 19 24 152 27 152 2 0 12 -9 23 -20z m-177 -85
c-5 -69 -3 -89 11 -110 16 -24 16 -26 -6 -33 -13 -5 -58 -21 -101 -36 -43 -16
-80 -26 -84 -23 -12 13 162 287 182 287 2 0 1 -38 -2 -85z m21 -302 c-23 -94
-97 -151 -238 -183 -23 -5 -50 -12 -60 -16 -15 -6 -14 -2 3 28 11 18 27 67 36
108 9 40 18 76 20 79 3 2 20 0 38 -5 27 -8 108 -2 200 15 4 0 4 -11 1 -26z
m5560 12 c10 -12 20 -12 80 1 105 22 106 12 24 -148 -64 -122 -134 -210 -269
-337 -58 -55 -143 -145 -189 -201 -99 -119 -190 -191 -319 -254 -100 -49 -138
-57 -127 -30 3 9 6 20 6 25 0 5 16 27 36 49 27 30 51 44 93 56 115 33 199 109
241 220 18 51 27 114 15 114 -5 0 -162 -73 -234 -108 -46 -23 -107 -95 -126
-150 -37 -103 -62 -149 -115 -202 -53 -55 -198 -160 -220 -160 -35 0 34 124
110 195 81 76 122 170 121 279 0 57 -6 81 -31 133 -17 35 -35 63 -39 63 -14 0
-158 -272 -175 -329 -9 -30 -16 -71 -16 -92 0 -97 -76 -249 -161 -323 -45 -40
-132 -86 -160 -86 -59 0 -35 71 53 161 29 30 64 76 77 103 28 60 51 163 51
231 0 28 5 81 10 119 6 38 8 71 6 73 -13 14 -133 -67 -190 -128 -100 -106
-131 -224 -96 -368 26 -110 -28 -218 -134 -267 -63 -29 -76 -30 -110 -3 -25
20 -26 25 -26 118 0 119 18 191 72 290 166 303 385 523 658 660 116 58 188 75
288 69 64 -4 87 -12 170 -54 92 -48 98 -49 181 -49 91 0 125 12 186 63 36 30
80 89 89 120 7 22 6 22 -87 22 -93 0 -296 -29 -350 -49 -19 -8 -43 -7 -80 0
-80 17 -85 23 -41 50 32 20 101 34 374 81 184 31 337 57 339 57 2 1 9 -6 15
-14z m-4659 -255 c85 -41 158 -145 171 -244 10 -70 -21 -56 -64 29 -41 81
-103 115 -210 115 -38 0 -71 -3 -75 -6 -12 -12 25 -66 91 -134 68 -68 88 -79
202 -104 45 -10 123 -104 170 -203 23 -50 40 -98 37 -107 -9 -24 -84 -40 -187
-40 -84 -1 -101 2 -145 26 -27 14 -66 42 -85 62 l-34 37 -6 123 c-5 108 -10
130 -34 180 -18 37 -43 68 -69 87 -38 28 -83 46 -92 38 -2 -2 0 -61 4 -131 7
-115 11 -134 40 -193 23 -46 50 -80 92 -117 53 -47 89 -92 89 -114 0 -4 -20
-4 -44 -2 -58 7 -172 60 -215 101 -35 34 -81 119 -81 152 -1 82 -73 175 -175
226 -76 37 -121 37 -119 -1 1 -14 6 -38 12 -55 6 -16 19 -61 28 -98 30 -123
94 -193 203 -223 72 -19 111 -39 151 -75 34 -31 35 -52 4 -57 -10 -2 -24 -10
-30 -17 -9 -12 -46 -1 -212 60 -407 150 -493 197 -548 306 -43 86 -68 232 -44
269 10 16 335 99 362 92 33 -8 4 -32 -97 -81 -93 -44 -104 -52 -115 -85 -13
-41 -40 -199 -34 -205 5 -5 102 58 142 93 18 15 53 68 78 117 47 92 89 135
156 163 57 24 344 46 527 40 89 -3 123 -8 156 -24z m6339 -641 c3 -47 12 -107
21 -134 8 -27 12 -51 10 -54 -3 -2 -51 18 -107 44 -69 32 -120 50 -155 53 -49
4 -55 2 -87 -30 -98 -98 -80 -291 38 -393 l51 -45 -66 0 c-62 0 -69 2 -140 51
-87 60 -199 148 -251 198 -26 24 -38 44 -38 62 0 55 41 79 362 208 166 67 312
128 323 136 27 17 31 8 39 -96z m-7673 66 c62 -22 479 -304 479 -324 0 -25 -8
-32 -110 -107 -52 -39 -127 -100 -167 -137 -80 -73 -137 -107 -182 -107 -61 0
-63 10 -12 50 102 81 146 163 145 276 0 71 -33 146 -77 178 -55 40 -160 13
-235 -62 l-39 -39 -27 91 c-15 50 -34 101 -42 114 -26 40 -104 21 -104 -26 0
-9 7 -57 15 -107 23 -140 28 -130 -69 -159 -46 -14 -87 -26 -91 -26 -5 0 -5
41 -1 92 8 116 37 184 96 227 40 29 163 75 225 85 48 7 150 -3 196 -19z m7655
-361 c120 -59 173 -79 216 -83 l57 -6 -47 -115 c-42 -102 -50 -115 -73 -118
-25 -3 -175 31 -186 42 -3 3 4 20 15 38 11 18 30 57 41 86 19 49 20 55 6 82
-9 17 -22 30 -29 30 -24 0 -62 -38 -106 -105 l-43 -66 -29 43 c-43 63 -78 135
-78 158 0 11 9 39 21 61 27 53 30 52 235 -47z m-7636 -23 l0 -99 -40 -36 c-42
-38 -70 -45 -89 -22 -6 7 -23 51 -36 97 -14 46 -28 92 -31 102 -4 12 0 17 16
17 12 0 31 5 42 11 12 7 44 15 72 19 28 4 54 8 59 9 4 0 7 -43 7 -98z m-270
-91 c39 -66 69 -124 66 -129 -6 -10 -169 -101 -180 -101 -3 0 -24 36 -46 80
-22 44 -51 87 -65 96 -14 9 -25 20 -25 24 0 4 28 20 63 35 76 34 94 49 102 86
4 16 8 29 10 29 2 0 35 -54 75 -120z m6683 74 c192 -37 368 -139 435 -252 24
-43 27 -59 32 -177 7 -163 28 -215 122 -308 35 -34 84 -88 108 -120 l44 -59
20 49 c15 36 20 71 21 139 0 84 -2 95 -37 165 -22 43 -63 101 -99 139 -72 77
-179 218 -179 237 0 56 232 -76 361 -206 149 -150 168 -228 92 -377 -56 -108
-73 -182 -83 -344 -7 -131 -6 -160 9 -160 22 0 105 68 137 111 81 111 94 192
59 389 -27 160 -29 178 -15 200 7 12 18 8 62 -23 100 -70 93 -57 74 -131 -38
-154 -13 -265 85 -367 33 -36 59 -72 59 -84 0 -11 -16 -58 -35 -104 -113 -269
-119 -528 -19 -809 20 -56 35 -80 65 -104 l38 -31 -88 -86 c-73 -71 -92 -95
-107 -141 -27 -81 -23 -156 10 -215 l26 -48 -53 -53 c-29 -29 -65 -74 -79
-101 -28 -52 -51 -151 -43 -189 3 -13 7 -35 10 -48 3 -14 14 -28 25 -31 18 -6
12 -12 -37 -44 -66 -42 -112 -92 -145 -154 -20 -36 -23 -57 -23 -154 l0 -113
-227 0 c-162 0 -258 5 -331 16 -58 10 -162 17 -242 17 -141 0 -178 -6 -405
-60 -59 -14 -116 -17 -265 -17 -173 0 -199 3 -287 26 -175 47 -343 133 -484
246 -40 32 -143 124 -230 206 -88 81 -208 186 -269 231 -119 90 -159 139 -201
244 -41 100 -55 193 -61 401 -8 293 24 477 123 695 69 151 86 209 86 300 0 78
-3 98 -36 220 -18 67 -20 149 -5 215 15 69 77 186 127 241 69 77 109 94 222
94 90 0 98 -2 160 -36 49 -27 77 -51 115 -102 50 -66 159 -160 293 -251 40
-27 75 -47 78 -43 14 13 16 100 4 159 -32 166 -136 262 -310 289 -41 6 -100
19 -130 29 l-55 17 50 36 c85 62 167 62 257 -1 75 -51 154 -81 213 -82 28 0
95 -11 149 -26 54 -14 100 -23 103 -20 7 7 -15 72 -42 126 -34 67 -86 122
-146 155 -45 24 -69 30 -139 33 -83 4 -90 2 -303 -67 -225 -73 -271 -83 -261
-56 15 38 124 98 318 174 360 142 450 160 635 121 188 -38 220 -72 206 -214
-15 -145 -5 -224 47 -393 17 -57 36 -103 43 -103 13 0 72 61 102 105 33 48 56
139 48 188 -13 78 -46 148 -109 230 -57 74 -96 136 -96 152 0 10 104 -7 135
-23 75 -37 104 -84 114 -192 14 -135 32 -163 284 -427 32 -35 63 -63 67 -63
14 0 30 88 30 169 0 142 -61 272 -167 356 -28 22 -131 91 -229 153 -230 146
-223 140 -204 153 20 14 270 2 373 -17z m-4803 -4 c0 -5 -80 -76 -178 -158
-211 -178 -309 -264 -339 -300 -65 -76 -89 -287 -50 -418 25 -79 50 -113 74
-98 24 14 157 271 182 351 11 35 25 108 31 164 15 147 54 227 138 280 46 29
102 39 102 18 0 -21 -38 -74 -69 -96 -16 -13 -44 -51 -61 -86 -27 -56 -31 -74
-31 -144 0 -108 45 -243 81 -243 4 0 30 42 59 93 67 121 83 195 74 338 -5 99
-4 109 18 148 32 58 102 91 206 98 68 5 89 2 158 -22 116 -40 407 -164 428
-183 16 -14 16 -17 1 -33 -22 -25 -92 -40 -229 -50 -103 -7 -128 -13 -181 -39
-34 -17 -77 -47 -95 -67 -47 -54 -90 -154 -102 -239 -16 -108 1 -116 95 -42
20 15 56 35 79 43 98 35 194 117 238 203 41 81 119 117 239 110 63 -4 89 -10
140 -38 58 -31 152 -117 152 -139 0 -21 -55 -24 -164 -8 -167 23 -240 3 -328
-90 -48 -53 -70 -89 -94 -156 -13 -37 -13 -43 1 -53 12 -9 26 -9 48 -3 18 6
61 14 97 20 121 18 155 35 250 125 146 137 176 130 385 -89 186 -196 248 -276
305 -392 56 -113 84 -220 100 -375 10 -103 9 -111 -35 -359 -82 -459 -100
-506 -295 -748 -53 -65 -102 -141 -146 -228 -138 -269 -210 -348 -412 -449
-183 -92 -413 -198 -519 -240 -200 -78 -379 -84 -681 -22 -295 61 -420 66
-626 25 -81 -16 -133 -19 -276 -17 -199 3 -219 -3 -246 -67 -21 -50 -6 -75 83
-137 43 -31 99 -74 125 -97 68 -60 161 -189 208 -286 39 -79 100 -251 100
-279 0 -22 -23 -34 -77 -41 -67 -9 -88 10 -97 91 -20 163 -68 266 -171 369
-52 52 -93 82 -160 115 l-90 46 1 39 c0 22 11 94 23 160 12 66 24 170 28 230
5 101 4 114 -17 158 -13 28 -38 58 -58 72 -62 42 -72 67 -72 181 0 121 -14
167 -74 245 -67 86 -70 94 -56 145 8 26 11 76 8 121 -6 95 -29 145 -105 226
-65 68 -65 71 -8 217 60 154 78 258 72 435 -5 161 -24 247 -88 400 -38 92 -37
110 9 154 88 83 123 157 123 261 0 36 -7 85 -16 109 -8 24 -13 51 -10 60 5 16
256 215 302 239 22 12 27 12 34 0 12 -19 5 -37 -67 -183 -59 -120 -64 -135
-64 -195 0 -111 72 -225 189 -300 65 -41 81 -40 81 8 0 107 -33 363 -55 435
-44 138 -29 257 43 352 71 94 284 236 428 285 91 32 215 46 253 30 30 -12 31
-14 15 -31 -26 -28 -171 -132 -239 -170 -117 -66 -183 -157 -211 -292 -16 -74
-13 -120 12 -199 24 -73 46 -67 131 40 143 177 162 212 187 330 8 38 24 88 35
110 28 55 112 127 174 151 53 19 425 79 505 80 23 1 42 -3 42 -9z m6450 -202
c44 -82 61 -140 55 -183 -11 -71 -15 -73 -88 -37 -35 17 -76 43 -91 57 -34 32
-30 56 26 169 l40 80 19 -25 c11 -13 29 -41 39 -61z m-8595 -51 c20 -54 35
-102 33 -108 -2 -6 -48 -30 -103 -53 l-100 -43 -6 36 c-8 45 6 153 25 190 8
15 34 45 57 65 49 45 43 50 94 -87z m8244 -117 l82 -44 -54 -55 c-30 -31 -63
-68 -75 -84 l-20 -28 -7 29 c-3 16 -20 42 -37 58 -47 44 -88 104 -88 129 0 12
14 41 31 65 l31 42 28 -34 c15 -19 65 -54 109 -78z m-7799 2 c0 -24 -7 -56
-15 -71 -16 -32 -86 -96 -134 -124 -30 -18 -31 -18 -37 0 -3 10 -17 43 -30 74
-43 102 -35 116 107 174 l84 34 12 -22 c7 -12 12 -41 13 -65z m-311 -161 c31
-56 41 -67 68 -71 30 -5 28 -7 -82 -87 l-114 -82 -39 62 c-21 34 -47 77 -56
96 -21 39 -25 33 93 135 75 63 65 68 130 -53z m8326 35 c60 -28 95 -51 99 -64
7 -22 -15 -94 -51 -165 l-24 -49 -42 35 c-65 53 -109 77 -144 77 l-32 0 46
105 c25 58 48 105 51 105 2 0 46 -20 97 -44z m289 -226 c30 -64 35 -150 11
-207 -20 -47 -64 -105 -75 -98 -4 3 -40 50 -79 105 l-71 99 87 123 88 123 6
-45 c4 -25 19 -70 33 -100z m-8902 15 c45 -85 54 -125 38 -165 -16 -38 -106
-120 -131 -120 -44 0 -72 133 -49 229 14 61 64 134 88 129 9 -2 34 -35 54 -73z
m8495 -93 l92 -87 -52 -82 c-29 -45 -59 -85 -67 -88 -21 -9 -93 73 -108 122
-18 60 -15 118 9 174 12 27 24 49 28 49 3 -1 47 -40 98 -88z m-8079 13 c19
-40 21 -52 12 -92 -6 -25 -16 -55 -21 -67 -14 -26 -90 -106 -102 -106 -4 0
-29 43 -54 96 -40 82 -44 97 -32 109 14 14 159 103 170 104 3 1 15 -19 27 -44z
m8309 -211 c40 -31 76 -60 79 -65 4 -8 -49 -114 -85 -167 -6 -11 -24 -5 -85
30 -41 23 -76 48 -76 53 0 6 15 46 33 90 19 44 36 88 40 98 3 9 10 17 13 17 4
0 41 -25 81 -56z m-8579 9 c11 -16 31 -50 45 -78 24 -45 25 -51 11 -70 -8 -11
-33 -48 -55 -82 -23 -35 -42 -63 -44 -63 -1 0 -35 36 -74 80 -66 73 -71 81
-60 102 21 39 121 138 140 138 10 0 26 -12 37 -27z m-209 -227 c35 -57 29
-120 -23 -218 -64 -123 -80 -179 -80 -278 0 -127 41 -232 141 -363 l45 -57
-30 -11 c-16 -5 -39 -23 -51 -39 -42 -58 -77 -33 -140 100 -60 126 -82 222
-84 365 -1 151 19 248 78 370 42 86 97 165 115 165 5 0 18 -15 29 -34z m9005
-48 c25 -46 60 -126 78 -178 27 -82 32 -113 36 -228 7 -209 -34 -353 -144
-505 l-48 -67 -48 75 c-26 42 -48 79 -48 83 0 4 27 40 60 81 70 87 99 162 107
271 9 133 -37 268 -133 386 l-46 57 58 53 c33 29 64 53 70 54 6 0 32 -37 58
-82z m-344 -15 l62 -68 -41 -35 c-95 -83 -138 -308 -91 -478 11 -40 41 -113
65 -162 l45 -89 -69 -41 c-38 -22 -72 -40 -75 -40 -6 0 -33 87 -70 230 -64
241 -51 470 37 645 37 74 57 105 67 105 5 0 36 -30 70 -67z m-8291 -18 c74
-159 104 -454 62 -629 -22 -94 -102 -276 -120 -276 -6 0 -11 5 -11 10 0 6 -16
24 -35 41 -46 41 -46 77 0 178 91 203 87 365 -15 566 l-48 94 52 30 c73 42 89
40 115 -14z m8488 -233 c61 -123 57 -256 -13 -394 -15 -29 -24 -65 -24 -93 0
-25 -4 -45 -8 -45 -18 0 -104 147 -123 212 -28 91 -23 224 11 313 12 33 30 82
39 109 l16 48 33 -38 c18 -22 50 -72 69 -112z m-8659 -62 c34 -88 33 -168 -2
-277 -15 -46 -37 -95 -50 -110 l-23 -27 -30 29 c-20 21 -41 67 -72 158 l-43
127 20 48 c11 26 42 92 68 147 l47 100 29 -65 c17 -36 42 -94 56 -130z m8606
-632 c26 -34 45 -48 62 -48 13 0 24 -3 24 -6 0 -12 -142 -175 -157 -181 -18
-7 -53 26 -100 95 l-38 55 79 73 c44 41 82 71 86 67 3 -5 23 -29 44 -55z
m-8605 0 c42 -22 78 -43 80 -44 7 -6 -50 -132 -71 -159 -29 -37 -52 -31 -113
28 -60 58 -68 87 -36 128 10 13 26 39 35 57 9 17 19 32 23 32 3 0 40 -19 82
-42z m8389 -228 c23 -61 42 -115 42 -120 0 -10 -192 -110 -211 -110 -8 0 -10
29 -7 98 3 74 9 107 26 138 20 39 83 104 101 104 4 0 26 -50 49 -110z m-8186
73 c26 -30 98 -164 98 -182 0 -31 -32 -111 -44 -111 -19 0 -128 68 -159 99
l-28 28 19 49 c24 64 69 134 86 134 7 0 20 -8 28 -17z m8568 -89 c38 -124 23
-204 -53 -281 -47 -49 -57 -52 -57 -20 0 12 -21 53 -45 91 -25 38 -45 79 -45
90 0 13 32 51 86 104 47 45 87 82 89 82 2 0 13 -30 25 -66z m-8942 -9 c28 -25
61 -62 72 -81 19 -29 20 -39 11 -66 -19 -54 -92 -158 -111 -158 -11 0 -27 22
-48 68 -50 110 -53 119 -42 167 10 46 46 115 60 115 4 0 31 -20 58 -45z m8680
-226 c26 -42 59 -80 83 -96 21 -14 36 -29 33 -34 -13 -21 -180 -129 -199 -129
-26 0 -42 17 -80 84 -19 32 -40 53 -62 62 -18 8 -33 16 -33 18 0 6 202 166
209 166 3 0 26 -32 49 -71z m-8429 16 c33 -19 74 -49 91 -67 37 -37 36 -64 -6
-135 -35 -61 -64 -78 -108 -63 -26 8 -127 71 -154 95 -4 4 108 205 114 205 1
0 30 -16 63 -35z m303 -232 c51 -103 49 -193 -3 -193 -40 0 -169 86 -169 112
0 15 67 138 88 161 14 16 16 16 34 0 10 -9 33 -45 50 -80z m7871 9 c41 -86 44
-104 23 -125 -18 -17 -206 -101 -212 -94 -8 7 34 184 52 223 16 34 65 74 90
74 6 0 27 -35 47 -78z m-8292 -104 c49 -29 89 -59 89 -67 0 -15 -86 -177 -98
-185 -12 -7 -85 87 -99 126 -23 63 -13 178 15 178 2 0 44 -24 93 -52z m8699
33 c20 -37 0 -112 -53 -199 -28 -45 -54 -85 -59 -88 -8 -5 -98 170 -98 192 0
15 157 113 182 114 10 0 22 -9 28 -19z m-266 -235 c31 -57 56 -107 56 -110 0
-3 -33 -23 -72 -46 -96 -53 -126 -53 -172 1 -66 77 -71 140 -15 180 36 25 131
79 141 79 3 0 32 -47 62 -104z m-8134 46 c89 -44 93 -55 55 -149 -26 -65 -26
-91 -1 -112 27 -23 62 4 96 73 46 92 50 94 99 48 l41 -39 0 -134 c-1 -125 -2
-132 -16 -106 -15 27 -163 108 -341 186 -70 30 -74 31 -109 16 -21 -8 -39 -13
-41 -11 -4 4 72 216 89 249 13 26 45 21 128 -21z m7817 -159 c33 -74 129 -444
120 -466 -6 -15 -112 -57 -144 -57 -53 0 -105 127 -70 173 6 9 37 27 68 41 59
26 69 38 69 87 0 26 -3 29 -32 29 -18 0 -57 -11 -86 -25 -65 -30 -89 -31 -97
-5 -8 25 3 105 22 149 12 31 99 137 114 140 3 1 20 -29 36 -66z m-7997 -117
c19 -19 67 -51 105 -72 39 -21 72 -39 74 -40 2 -2 -48 -229 -54 -241 -1 -2
-35 30 -77 70 -80 75 -102 108 -113 169 -7 36 11 148 23 148 3 0 22 -15 42
-34z m8416 -33 c16 -36 15 -39 -18 -107 -42 -88 -78 -131 -139 -161 l-47 -24
-5 22 c-3 12 -9 68 -13 124 l-7 101 44 23 c48 24 136 57 157 58 7 1 20 -16 28
-36z m-4740 -78 c12 -30 -15 -137 -47 -186 -44 -70 -109 -113 -293 -194 -332
-148 -473 -231 -569 -334 -108 -117 -165 -279 -154 -440 10 -153 56 -265 183
-448 79 -113 107 -137 151 -130 18 3 33 4 33 2 0 -2 -20 -18 -45 -35 -52 -36
-74 -65 -77 -103 -1 -15 -6 -27 -9 -27 -4 0 -42 41 -85 90 -358 415 -419 844
-169 1195 61 86 157 174 266 245 125 81 410 225 591 299 81 32 155 64 165 70
26 15 53 13 59 -4z m1222 -66 c407 -167 578 -264 738 -424 194 -191 275 -382
261 -614 -12 -203 -90 -380 -284 -644 -47 -65 -60 -108 -43 -152 10 -25 2 -21
-54 33 -45 44 -72 62 -91 62 -26 0 -75 -39 -75 -61 0 -6 18 -31 40 -56 22 -25
40 -51 40 -57 0 -7 -12 -19 -27 -28 -16 -10 -74 -62 -130 -117 -149 -145 -290
-251 -467 -351 -54 -30 -58 -31 -51 -11 10 33 -3 58 -43 83 -67 41 -202 145
-195 152 3 3 22 6 41 6 32 0 48 13 163 127 71 70 130 125 132 122 40 -57 61
-78 86 -89 42 -17 82 4 246 127 226 170 413 381 485 548 58 135 76 303 45 434
-23 94 -88 212 -159 285 -104 107 -247 188 -558 315 -171 69 -224 102 -267
168 -51 77 -76 184 -49 211 7 7 13 12 15 12 2 0 92 -36 201 -81z m2496 -139
c36 -13 33 -33 -20 -103 -127 -170 -172 -278 -236 -581 -9 -43 -20 -64 -39
-78 -43 -32 -193 -51 -414 -52 -212 -1 -303 11 -422 56 -102 38 -176 129 -177
218 -1 61 16 81 114 130 41 21 91 52 110 68 34 29 34 30 17 55 -16 25 -18 25
-110 20 -71 -4 -106 -2 -152 12 -105 30 -134 50 -162 111 -14 31 -23 58 -20
60 9 10 452 -15 485 -27 45 -16 55 -45 37 -111 -45 -163 -47 -172 -40 -227 19
-160 131 -267 298 -287 66 -8 123 13 137 51 37 98 -26 280 -115 335 -34 21
-109 27 -120 10 -7 -12 32 -90 46 -90 15 0 92 -168 85 -186 -8 -22 -36 -17
-100 19 -77 43 -98 72 -104 141 -4 49 -1 61 28 106 60 93 193 194 247 188 26
-3 31 -11 58 -93 37 -110 66 -158 118 -196 91 -66 170 -54 195 31 24 81 -6
204 -64 264 -30 31 -41 36 -81 36 l-47 0 35 36 c34 35 90 70 139 85 37 11 245
11 274 -1z m-3121 -192 c242 -300 339 -557 308 -814 -10 -84 -86 -390 -101
-407 -4 -4 -45 13 -91 37 -61 34 -95 46 -126 46 -31 0 -43 -4 -43 -14 0 -39
27 -70 124 -141 58 -42 106 -77 106 -78 0 -1 -16 -2 -35 -3 -31 0 -47 -13
-146 -117 -61 -64 -115 -117 -120 -117 -13 0 -275 399 -316 481 -49 99 -73
213 -73 345 0 262 74 472 251 708 85 112 139 166 168 166 12 0 48 -36 94 -92z
m2726 -28 c48 -85 63 -141 42 -154 -18 -12 -60 14 -85 51 -21 30 -26 50 -26
100 0 54 6 93 15 93 1 0 26 -40 54 -90z m-5583 45 c25 -61 -12 -152 -76 -185
l-40 -20 0 48 c0 40 8 60 46 120 25 40 48 72 50 72 3 0 12 -16 20 -35z m-820
-104 c109 -63 210 -206 240 -342 16 -69 16 -73 -1 -86 -27 -19 -49 -16 -107
13 -63 32 -137 100 -179 165 -52 82 -83 211 -63 263 9 24 53 19 110 -13z
m2748 -230 c10 -11 28 -68 41 -128 68 -312 171 -557 341 -809 73 -109 79 -120
51 -103 -44 26 -57 24 -115 -16 -28 -19 -75 -50 -106 -70 l-55 -35 -27 47
c-15 27 -68 98 -117 158 -124 152 -116 140 -90 126 19 -10 26 -8 42 8 53 53
72 250 37 381 -32 118 -104 227 -163 244 -54 17 -150 -123 -173 -254 -21 -116
1 -210 82 -353 28 -49 46 -92 42 -96 -38 -34 -126 -91 -134 -86 -15 9 -176
326 -195 383 -27 84 -18 230 18 304 62 127 180 219 361 280 129 43 137 44 160
19z m1814 -15 c294 -100 440 -310 389 -561 -23 -115 -89 -240 -183 -347 -43
-49 -81 -88 -86 -88 -4 0 -8 11 -8 24 0 13 -13 40 -30 61 -16 21 -30 43 -30
50 0 7 20 43 45 81 70 107 88 162 88 274 0 74 -5 107 -22 151 -40 105 -119
186 -166 173 -30 -8 -90 -80 -125 -149 -86 -170 -80 -321 20 -513 38 -72 44
-89 27 -77 -12 8 -27 15 -34 15 -7 0 -67 -55 -133 -122 -110 -112 -122 -121
-133 -104 -31 48 -53 68 -133 123 -61 41 -81 59 -68 62 30 5 52 30 103 116
135 224 229 465 281 719 11 55 28 108 37 118 22 25 75 23 161 -6z m-4050 -382
c2 -42 -1 -54 -22 -77 -29 -31 -69 -43 -100 -29 -21 9 -35 42 -51 119 -8 38 1
42 100 40 l70 -2 3 -51z m2093 -5 c30 -41 57 -365 32 -390 -23 -23 -116 130
-128 211 -8 56 9 134 38 177 25 37 33 37 58 2z m2003 -1 c9 -18 22 -61 30 -94
l14 -61 -40 -94 c-21 -52 -42 -100 -45 -106 -3 -7 -13 -13 -23 -13 -28 0 -54
89 -54 180 0 80 24 153 66 197 28 30 32 29 52 -9z m-3114 -447 c0 -116 -91
-235 -235 -306 -68 -34 -82 -45 -91 -74 -14 -44 -24 -21 -24 58 0 142 85 297
195 354 37 19 130 38 148 29 4 -2 7 -29 7 -61z m1337 -327 c13 -4 31 -3 40 0
30 12 -29 -45 -62 -59 -36 -16 -53 -10 -136 47 -35 24 -88 54 -116 67 -29 14
-53 28 -53 33 0 5 16 25 36 44 34 32 36 37 32 82 l-5 48 121 -128 c66 -71 131
-131 143 -134z m1745 176 c34 -22 63 -42 65 -44 5 -4 -172 -151 -215 -178 -29
-19 -78 -23 -101 -9 -11 7 3 29 62 100 42 50 86 109 97 131 11 22 22 40 25 40
2 0 32 -18 67 -40z m-512 -168 c19 -6 53 -13 75 -17 l40 -7 -144 -137 c-128
-121 -144 -141 -143 -168 l1 -32 -75 49 c-41 27 -88 60 -105 74 -36 31 -65 24
-92 -23 l-19 -31 71 -67 c40 -36 70 -69 69 -73 -2 -4 -80 -77 -174 -162 -107
-97 -185 -160 -207 -167 -42 -14 -70 -8 -162 36 -77 37 -134 42 -190 19 -64
-27 -54 -35 157 -130 156 -70 203 -80 248 -49 14 9 72 62 130 117 58 56 138
131 179 167 68 62 73 69 69 100 l-4 34 163 -80 162 -80 -57 -32 c-207 -118
-243 -127 -317 -77 -48 32 -78 31 -109 -7 -35 -41 -33 -55 13 -79 22 -11 43
-25 47 -31 11 -18 86 -49 119 -48 42 0 102 23 304 118 l174 82 44 -43 c23 -23
43 -45 43 -48 0 -13 -237 -119 -330 -148 -184 -58 -247 -67 -465 -67 -214 1
-300 12 -463 61 -118 35 -359 161 -341 178 2 2 111 57 242 121 131 65 241 124
244 132 3 8 -5 26 -18 40 -13 14 -17 22 -9 18 22 -13 199 -155 205 -166 9 -14
51 -11 64 4 6 8 14 28 17 46 8 38 16 30 -293 303 l-212 187 94 86 c52 47 98
85 103 85 4 0 50 -43 102 -95 52 -53 116 -110 143 -126 26 -17 47 -33 47 -34
0 -2 -27 -29 -59 -60 -74 -70 -90 -105 -67 -140 35 -53 53 -41 275 186 117
120 212 225 220 244 l13 33 72 -43 c39 -23 87 -47 106 -53z m-1590 34 c-11
-31 -5 -39 100 -122 181 -143 208 -150 310 -83 34 23 65 38 69 33 5 -5 20 -26
33 -47 14 -21 71 -86 126 -146 l100 -107 -154 -77 -155 -77 -262 218 c-219
183 -323 283 -331 316 -1 6 154 114 166 115 4 1 3 -10 -2 -23z m-602 -203 c3
-57 1 -62 -37 -108 -23 -28 -44 -67 -49 -90 l-9 -40 -13 30 c-7 17 -15 62 -17
100 -3 58 0 76 16 103 22 33 78 74 96 69 6 -2 11 -31 13 -64z m563 -505 c32
-35 59 -66 59 -70 0 -13 -125 -9 -138 4 -13 13 -16 85 -6 112 10 26 24 19 85
-46z"/>
<path d="M5307 3070 c-124 -138 -181 -343 -143 -520 28 -133 105 -258 143
-234 38 24 38 39 4 148 -56 177 -48 250 42 406 l26 44 41 -89 c23 -50 46 -114
52 -144 13 -71 -4 -167 -42 -247 -34 -69 -135 -184 -211 -240 -47 -34 -96
-104 -82 -118 4 -3 22 -6 42 -6 76 0 277 188 344 322 48 95 67 173 67 273 0
140 -51 280 -146 398 -58 73 -77 74 -137 7z"/>
<path d="M2599 2507 c-142 -40 -219 -144 -235 -318 -5 -54 -3 -77 15 -125 72
-191 202 -318 342 -332 60 -6 91 11 87 46 -3 28 -7 31 -118 80 -84 37 -132 79
-164 144 -35 70 -34 95 4 103 49 11 143 80 178 132 35 53 65 167 55 214 -11
58 -76 80 -164 56z m36 -123 c28 -29 -21 -119 -81 -147 -24 -12 -41 -30 -53
-58 l-18 -40 -6 38 c-13 84 23 173 83 204 42 23 54 24 75 3z"/>
<path d="M8013 2509 c-33 -17 -45 -65 -33 -130 23 -120 89 -206 199 -258 50
-23 68 -26 171 -26 130 0 168 13 234 81 70 72 114 204 67 204 -41 0 -78 -22
-99 -59 -50 -88 -150 -145 -216 -123 -23 7 -26 10 -10 11 107 5 8 222 -128
281 -60 26 -153 35 -185 19z m143 -115 c13 -4 41 -39 73 -92 l52 -87 -26 -3
c-58 -7 -155 89 -155 154 0 36 10 41 56 28z"/>
<path d="M7343 2380 c-36 -15 -46 -46 -40 -126 13 -142 72 -259 189 -370 180
-169 453 -214 651 -107 96 53 202 195 190 256 -6 31 -5 30 -56 16 -30 -8 -45
-21 -68 -60 -40 -64 -99 -114 -166 -139 -57 -21 -148 -26 -173 -10 -12 8 -11
10 8 10 36 0 46 42 28 122 -46 203 -208 358 -421 403 -79 17 -110 18 -142 5z
m254 -159 c100 -51 170 -146 203 -276 11 -44 20 -83 20 -88 0 -11 -78 3 -138
25 -69 26 -172 121 -207 191 -32 66 -43 141 -24 163 17 21 91 14 146 -15z"/>
</g>
</svg>
